<svg width="15" height="14" viewBox="0 0 15 14" fill="none" xmlns="http://www.w3.org/2000/svg">
<path d="M4.50643 0.277588C2.25198 0.277588 0.417603 2.03323 0.417603 4.19018V9.77825C0.417603 11.9349 2.25306 13.6898 4.50808 13.6898H10.3502C12.6049 13.6898 14.4396 11.9342 14.4396 9.7772V4.18861C14.4396 2.03219 12.6041 0.277588 10.3491 0.277588H4.50643ZM11.6352 2.42354C11.9448 2.42354 12.1961 2.66389 12.1961 2.96003C12.1961 3.25617 11.9448 3.49652 11.6352 3.49652C11.3256 3.49652 11.0743 3.25617 11.0743 2.96003C11.0743 2.66389 11.3256 2.42354 11.6352 2.42354ZM7.42859 3.49652C9.43934 3.49652 11.0743 5.06038 11.0743 6.98369C11.0743 8.907 9.43906 10.4709 7.42859 10.4709C5.41784 10.4709 3.78288 8.90673 3.78288 6.98369C3.78288 5.06065 5.41784 3.49652 7.42859 3.49652ZM7.42859 4.56949C6.03453 4.56949 4.90464 5.65025 4.90464 6.98369C4.90464 8.31713 6.03453 9.39789 7.42859 9.39789C8.82266 9.39789 9.95255 8.31713 9.95255 6.98369C9.95255 5.65025 8.82266 4.56949 7.42859 4.56949Z" fill="#444E62"/>
</svg>
