<svg width="14" height="14" viewBox="0 0 14 14" fill="none" xmlns="http://www.w3.org/2000/svg">
<path d="M14.0001 0.277344H0.615479V13.6896H14.0001V0.277344ZM5.07702 10.7091H3.20094V5.4932H5.07702V10.7091ZM4.10589 4.53721C3.53258 4.53721 3.14963 4.15422 3.14963 3.64306C3.14963 3.13191 3.53184 2.74892 4.16909 2.74892C4.7424 2.74892 5.12535 3.13191 5.12535 3.64306C5.12535 4.15422 4.74314 4.53721 4.10589 4.53721ZM11.7693 10.7091H9.95348V7.85822C9.95348 7.06988 9.4694 6.88807 9.28796 6.88807C9.10653 6.88807 8.50125 7.00953 8.50125 7.85822C8.50125 7.97968 8.50125 10.7091 8.50125 10.7091H6.62517V5.4932H8.50125V6.22119C8.74291 5.79647 9.22699 5.4932 10.1349 5.4932C11.0428 5.4932 11.7693 6.22119 11.7693 7.85822V10.7091Z" fill="#444E62"/>
</svg>
