<svg width="18" height="15" viewBox="0 0 18 15" fill="none" xmlns="http://www.w3.org/2000/svg">
<path d="M17.4945 1.93895C16.8854 2.22302 16.2305 2.41241 15.5396 2.5019C16.2421 2.06297 16.7824 1.36287 17.036 0.535697C16.3788 0.94134 15.6507 1.23916 14.8759 1.39616C14.2573 0.705834 13.3748 0.277588 12.3972 0.277588C10.5191 0.277588 8.99712 1.86595 8.99712 3.82421C8.99712 4.10126 9.02788 4.37128 9.08592 4.63336C6.26071 4.484 3.75498 3.07035 2.0786 0.924845C1.78407 1.449 1.61837 2.06297 1.61837 2.71083C1.61837 3.94212 2.21731 5.02587 3.13051 5.66457C2.57307 5.64655 2.04842 5.48344 1.58906 5.22167C1.58906 5.23236 1.58906 5.24824 1.58906 5.26321C1.58906 6.98383 2.7614 8.41641 4.31532 8.74264C4.03124 8.8245 3.73119 8.87001 3.42185 8.87001C3.20219 8.87001 2.98832 8.84374 2.78113 8.80464C3.21379 10.2106 4.46912 11.2385 5.9563 11.2687C4.79267 12.2184 3.32725 12.7872 1.73357 12.7872C1.45819 12.7872 1.18919 12.7707 0.923096 12.7368C2.42827 13.7402 4.21608 14.3285 6.13506 14.3285C12.3882 14.3285 15.8089 8.92316 15.8089 4.23413C15.8089 4.08049 15.8042 3.92746 15.7972 3.77626C16.465 3.2802 17.0401 2.65402 17.4945 1.93895Z" fill="#444E62"/>
</svg>
