<svg width="51" height="51" viewBox="0 0 51 51" fill="none" xmlns="http://www.w3.org/2000/svg">
<path d="M42.1369 37.1954C44.686 33.6581 46.0385 29.4441 46.0385 25.0223C46.0904 19.3521 43.9578 14.0458 40.0039 10.0922C35.9982 6.03417 30.7441 3.84937 25.0738 3.84937C13.525 3.84937 4.05713 13.3173 4.05713 24.866C4.05713 36.4147 13.473 45.8826 25.0738 45.8826C27.1026 45.8826 29.0273 45.6225 30.8481 45.0502L30.9523 44.9983L30.5361 42.9177L30.38 42.9695C28.6114 43.4899 26.7905 43.802 24.97 43.802C14.5657 43.802 6.08623 35.3224 6.08623 24.9182C6.08623 14.514 14.5658 6.03445 24.97 6.03445C35.3742 6.03445 43.8538 14.514 43.8538 24.9182C43.8538 28.924 42.6051 32.7733 40.2123 36.1028L40.212 36.207L42.0329 37.2473L42.1369 37.1954Z" fill="#101828"/>
<path d="M42.8652 7.38731C38.1312 2.60107 31.7847 0 25.0739 0C22.7331 0 20.496 0.312072 18.3634 0.936199L18.2592 0.988089L18.6235 2.91279L18.7796 2.8609C20.8602 2.28864 22.9932 1.97658 25.0743 1.97658C37.8196 1.97658 48.2239 12.3288 48.2239 25.1261C48.2235 37.9243 37.8196 48.2236 25.0743 48.2236C12.3291 48.1717 1.97686 37.7673 1.97686 25.022C1.97686 20.1842 3.43346 15.6062 6.2428 11.6526L6.34694 11.5484L4.63024 10.5599L4.57835 10.6641C1.56073 14.8777 0 19.8719 0 25.074C0 38.8596 11.2366 50.0963 25.0223 50.0963C38.86 50.0963 50.1486 38.8596 50.1486 25.074C50.1486 18.4152 47.5997 12.1207 42.8658 7.38671L42.8652 7.38731Z" fill="#101828"/>
<path d="M21.0162 17.7394H20.2361C16.7506 17.7394 13.9413 20.5483 13.9413 24.0342C13.9413 27.4677 17.0105 29.7567 17.1146 29.8605C17.2706 29.9646 17.3748 30.1206 17.3748 30.2248V34.3866C17.3748 35.583 18.311 36.5196 19.5077 36.6233C19.7679 36.8835 20.0281 37.0395 20.3402 37.1437H20.8605C21.1207 37.0395 21.3809 36.8835 21.5369 36.7275C22.7333 36.7275 23.6699 35.6871 23.6699 34.4907V30.3289C23.6699 30.2248 23.8259 30.0687 24.0342 29.9646C24.1902 29.8605 27.2075 27.5714 27.2075 24.1383C27.3625 20.5487 24.4494 17.7394 21.0162 17.7394V17.7394ZM18.2069 28.2997C18.2069 28.2997 15.8137 26.427 15.8137 23.93C15.8137 21.4331 17.7906 19.508 20.2357 19.508H21.0159C23.5128 19.508 25.4379 21.4849 25.4379 23.93C25.4379 26.3232 23.3049 28.0395 23.0447 28.196C22.8887 28.3001 21.9521 28.9761 21.9521 29.9646L21.9525 31.3171H19.1953V30.0165C19.2472 29.028 18.2068 28.2998 18.2068 28.2998L18.2069 28.2997ZM22.0566 33.294V34.3866C22.0566 34.5426 21.9005 34.7509 21.6922 34.7509H19.6634C19.5074 34.7509 19.2991 34.5949 19.2991 34.3866V33.294H22.0566Z" fill="#101828"/>
<path d="M20.6001 25.5427L21.6927 26.1149C21.7969 26.1149 21.8488 26.2191 21.9529 26.2191C22.0571 26.2191 22.2131 26.2191 22.265 26.1149C22.421 26.0108 22.5252 25.8029 22.5252 25.5946L22.265 24.346L23.2012 23.5135C23.3572 23.3575 23.3572 23.2015 23.3572 22.9413C23.2531 22.7853 23.097 22.6292 22.941 22.6292L21.6924 22.4735L21.1201 21.3809C21.016 21.2249 20.86 21.1207 20.5998 21.1207C20.3396 21.1207 20.1836 21.2249 20.0794 21.3809L19.5075 22.4735L18.2589 22.6296C18.1029 22.6296 17.8427 22.7856 17.8427 22.9417C17.7386 23.0977 17.8427 23.3579 17.9987 23.5139L18.9349 24.3463L18.6748 25.5949C18.6748 25.751 18.7789 26.0112 18.9349 26.1153C19.091 26.2194 19.3512 26.2713 19.5072 26.2194L20.6001 25.5427Z" fill="#101828"/>
<path d="M32.6171 16.3866H29.8599C29.4956 16.3866 29.1316 16.7509 29.1316 17.1149L29.0275 19.9238C29.0275 20.1318 29.0794 20.3401 29.2354 20.4961C29.3915 20.6521 29.5475 20.704 29.7558 20.704C29.9637 20.704 30.1201 20.5999 30.328 20.4961C30.4841 20.3401 30.536 20.184 30.536 19.9757L30.5879 18.8313L30.8999 19.1433C32.5648 20.8082 32.5648 23.4093 30.8999 25.0738L29.3919 26.6349C27.363 28.6637 27.1551 32.0449 29.0276 34.282C28.5072 35.2182 28.7155 36.415 29.4438 37.1433C30.38 38.0795 31.9407 38.0795 32.9292 37.1433C33.9177 36.2071 33.8654 34.6464 32.9292 33.6579C32.2009 32.9296 31.0564 32.7217 30.1202 33.1898C28.8197 31.5249 28.9758 29.1321 30.4323 27.6756L31.8889 26.219C34.1256 23.9822 34.0738 20.3927 31.8889 18.2079L31.681 17.9999H32.6172C32.8251 17.9999 32.9815 17.8958 33.1375 17.792C33.2936 17.636 33.3455 17.4799 33.3455 17.2717C33.3455 17.0637 33.2413 16.9073 33.1375 16.7513C32.9811 16.4908 32.7732 16.3866 32.6172 16.3866L32.6171 16.3866ZM31.9407 36.0507C31.5763 36.415 30.9522 36.415 30.5882 36.0507C30.2239 35.6864 30.2239 35.0622 30.5882 34.6982C30.9525 34.3339 31.5767 34.3339 31.9407 34.6982C32.3569 35.1141 32.305 35.6863 31.9407 36.0507Z" fill="#101828"/>
<path d="M37.0908 28.2477C37.0908 28.0398 37.0389 27.8834 36.8828 27.7273C36.7787 27.6232 36.5708 27.5194 36.3625 27.5194C36.1546 27.5194 35.9982 27.5713 35.8421 27.7273L34.9578 28.6117L34.0735 27.7273C33.9693 27.6232 33.7614 27.5194 33.5531 27.5194C33.3452 27.5194 33.1888 27.5713 33.0328 27.7273C32.9286 27.8315 32.8248 28.0394 32.8248 28.2477C32.8248 28.4556 32.8767 28.612 33.085 28.7681L33.9693 29.6005L33.085 30.4329C32.9809 30.5371 32.8771 30.745 32.8248 30.9533C32.8248 31.1612 32.8767 31.3176 33.0328 31.4736C33.1369 31.5778 33.3448 31.6816 33.5531 31.6816C33.761 31.6816 33.9174 31.6297 34.0735 31.4736L35.062 30.5893L35.9463 31.4736C36.0504 31.5778 36.2584 31.6816 36.4667 31.6816C36.6746 31.6816 36.831 31.6297 36.987 31.4736C37.2472 31.1616 37.2472 30.6935 36.987 30.4333L36.1027 29.6009L36.987 28.7685C37.0386 28.6117 37.0908 28.5079 37.0908 28.2477L37.0908 28.2477Z" fill="#101828"/>
<path d="M23.3052 15.9187C23.3052 16.1266 23.3571 16.283 23.5131 16.4391C23.6172 16.5432 23.8252 16.647 24.0335 16.647C24.2414 16.647 24.3978 16.5951 24.5538 16.4391L25.5423 15.5548L26.4266 16.4391C26.5308 16.5432 26.7387 16.647 26.947 16.647C27.1549 16.647 27.3113 16.5951 27.4674 16.4391C27.5715 16.3349 27.6753 16.127 27.6753 15.9187C27.6753 15.7108 27.6234 15.5544 27.4151 15.3983L26.5308 14.5659L27.4151 13.7335C27.7272 13.4733 27.7272 12.9533 27.4151 12.6932C27.311 12.589 27.103 12.4852 26.8948 12.4852C26.6868 12.4852 26.5304 12.5371 26.3744 12.6932L25.4382 13.6297L24.5539 12.7454C24.4497 12.6413 24.2418 12.5375 24.0335 12.5375C23.8256 12.5375 23.6692 12.5894 23.5131 12.7454C23.409 12.8496 23.3052 13.0575 23.3052 13.2658C23.3052 13.4737 23.3571 13.6301 23.5654 13.7861L24.4497 14.6186L23.5654 15.3984C23.3575 15.5544 23.3052 15.7627 23.3052 15.9187L23.3052 15.9187Z" fill="#101828"/>
</svg>
